PathFileType	4	(X/Y/Z)	Kaydara																																																																																																																									
DataRate	CameraRate	NumFrames	NumMarkers	Units	OrigDataRate	OrigDataStartFrame	OrigNumFrames																																																																																																																					
30	30	4	41	mm	30	2	230																																																																																																																					
Frame#	Time	PAIB_LFHD			PAIB_RFHD			PAIB_LBHD			PAIB_RBHD			PAIB_LFTShould			PAIB_RFTShould			PAIB_LRRShould			PAIB_RRRShould			PAIB_T10			PAIB_STRN			PAIB_TRUN			PAIB_LSHO			PAIB_LUPA			PAIB_LELB			PAIB_LFRM			PAIB_LWRA			PAIB_LWRB			PAIB_LFIN			PAIB_RSHO			PAIB_RUPA			PAIB_RELB			PAIB_RFRM			PAIB_RWRA			PAIB_RWRB			PAIB_RFIN			PAIB_LFWT			PAIB_RFWT			PAIB_LBWT			PAIB_RBWT			PAIB_LTHI			PAIB_LKNE			PAIB_LSHN			PAIB_LANK			PAIB_LHEE			PAIB_LTOE			PAIB_RTHI			PAIB_RKNE			PAIB_RSHN			PAIB_RANK			PAIB_RHEE			PAIB_RTOE		
		X1	Y1	Z1	X2	Y2	Z2	X3	Y3	Z3	X4	Y4	Z4	X5	Y5	Z5	X6	Y6	Z6	X7	Y7	Z7	X8	Y8	Z8	X9	Y9	Z9	X10	Y10	Z10	X11	Y11	Z11	X12	Y12	Z12	X13	Y13	Z13	X14	Y14	Z14	X15	Y15	Z15	X16	Y16	Z16	X17	Y17	Z17	X18	Y18	Z18	X19	Y19	Z19	X20	Y20	Z20	X21	Y21	Z21	X22	Y22	Z22	X23	Y23	Z23	X24	Y24	Z24	X25	Y25	Z25	X26	Y26	Z26	X27	Y27	Z27	X28	Y28	Z28	X29	Y29	Z29	X30	Y30	Z30	X31	Y31	Z31	X32	Y32	Z32	X33	Y33	Z33	X34	Y34	Z34	X35	Y35	Z35	X36	Y36	Z36	X37	Y37	Z37	X38	Y38	Z38	X39	Y39	Z39	X40	Y40	Z40	X41	Y41	Z41
																																																																																																																												
1	0.02	244.49505	1700.36774	-1997.49527	58.86181	1701.10382	-2010.35629	260.14318	1665.45105	-2123.37006	57.33844	1677.3262	-2123.89893	218.90591	1436.66443	-1990.87189	94.97183	1432.72537	-1999.09592	233.69463	1482.48993	-2142.84378	79.36999	1482.05048	-2140.24002	158.59179	1314.58725	-2203.48785	163.95367	1373.89481	-1947.9599	162.89888	1276.11893	-1913.96332	352.65072	1435.58548	-2068.2402	398.87184	1206.75072	-2050.1799	414.48143	1117.29477	-2077.18704	429.86904	1008.50899	-2021.53442	369.03118	908.51822	-1922.77786	406.89838	879.80743	-1984.77432	418.39817	852.9538	-1917.98676	-31.68814	1426.85211	-2059.7197	-89.79735	1246.9297	-2087.23785	-106.36989	1128.04245	-2083.94073	-120.66618	995.73227	-2039.05777	-61.69909	904.92516	-1929.64447	-126.76996	883.18588	-1978.02002	-119.97595	856.05652	-1908.12073	266.42986	967.13242	-1937.20642	30.33	971.34018	-1942.4057	211.17863	1027.4501	-2151.02142	66.93217	1031.45164	-2150.94894	262.50015	748.75008	-2154.36768	299.1717	511.00292	-2069.00604	274.58303	311.4859	-2069.74518	279.85977	128.76566	-2158.24387	227.87167	119.52514	-2210.49713	263.85075	75.18758	-1987.27036	5.89357	730.58495	-2154.19952	0.70501	487.60834	-2081.30127	57.73527	302.939	-2072.46872	27.44336	107.07785	-2159.78729	91.72142	113.47876	-2214.72565	43.0731	77.48041	-1991.67633
2	0.053	244.46867	1700.2742	-1997.78519	58.87624	1701.0466	-2010.56	260.10715	1665.38666	-2123.70926	57.30561	1677.33185	-2124.19128	218.73301	1436.65192	-1991.21475	94.89135	1432.66647	-1999.46426	233.6101	1482.41562	-2143.15079	79.24917	1482.01859	-2140.5452	158.45478	1314.53308	-2203.80112	163.78679	1373.81516	-1948.21625	162.84073	1276.18126	-1914.17465	352.5872	1435.48798	-2068.59055	400.77888	1206.22536	-2046.90857	414.3787	1117.23999	-2077.49466	429.76639	1008.41835	-2021.78497	369.04552	908.51692	-1922.96188	406.83582	879.75761	-1985.04242	418.38619	852.92068	-1918.32047	-31.75845	1426.82175	-2060.00824	-89.79542	1246.88057	-2087.49954	-106.4322	1127.99927	-2084.32999	-120.52966	995.66475	-2039.31137	-61.53789	904.83658	-1929.91852	-126.56447	883.10234	-1978.30597	-119.72099	855.94475	-1908.33908	266.37396	967.18079	-1937.25739	30.17089	971.2281	-1942.60239	211.16449	1027.38594	-2151.1441	66.92255	1031.43082	-2151.05484	262.48558	748.72627	-2154.35593	299.15312	510.98335	-2069.11728	274.55803	311.59502	-2069.64676	280.70208	128.25037	-2159.68903	227.86356	119.51677	-2210.48111	263.83505	75.16308	-1987.27158	5.76722	730.54131	-2154.18243	0.6904	487.62611	-2081.32996	57.73524	302.93072	-2072.49832	27.43001	107.1238	-2159.67773	89.77683	113.07788	-2214.25644	43.0946	77.46304	-1991.66931
3	0.087	244.45154	1700.21011	-1998.05649	58.81567	1701.06384	-2010.41916	260.02953	1665.25314	-2123.79318	57.28152	1677.42096	-2124.5047	218.61935	1436.81244	-1991.78909	94.85189	1432.65015	-1999.72336	233.57849	1482.3909	-2143.50449	79.18691	1481.95236	-2140.91949	158.45294	1314.43024	-2204.0654	163.65444	1373.85208	-1948.45917	162.74992	1276.24504	-1914.41315	352.57442	1435.42923	-2069.00818	399.24114	1205.14191	-2045.93033	414.19106	1117.11838	-2077.72491	429.60033	1008.38943	-2022.06055	368.84251	908.3474	-1923.2048	406.63834	879.6946	-1985.27115	418.31135	852.89009	-1918.63953	-31.8097	1426.67847	-2060.31433	-89.83432	1246.75293	-2087.854	-106.24435	1127.74162	-2084.43817	-120.42412	995.51033	-2039.57779	-61.42639	904.75563	-1930.18127	-126.40957	883.07915	-1978.67142	-119.53092	855.83076	-1908.60886	266.45864	967.27402	-1937.31888	30.24917	971.31401	-1942.58667	211.09865	1027.40463	-2151.26541	66.8698	1031.48834	-2151.14059	262.43952	748.69553	-2154.46808	299.15327	511.00254	-2069.19281	274.54947	311.68375	-2069.59015	280.68665	127.78761	-2159.84375	227.7593	119.52599	-2210.49744	263.82072	75.17353	-1987.29218	5.68811	730.54825	-2154.24423	0.67527	487.63252	-2081.40991	57.73452	303.02101	-2072.58652	27.48004	107.05256	-2159.76196	89.75145	113.05365	-2214.27277	43.06756	77.47235	-1991.67313
4	0.12	244.45568	1700.17365	-1998.40744	58.83178	1701.02173	-2010.6604	260.02258	1665.28915	-2124.1568	57.24251	1677.41913	-2124.78439	218.61395	1436.67191	-1991.84143	94.80354	1432.73499	-2000.06744	233.58921	1482.26898	-2143.82111	79.14575	1481.88644	-2141.24786	158.43107	1314.32709	-2204.32709	163.69274	1373.90488	-1948.80951	162.62602	1276.27159	-1914.63989	352.50626	1435.32242	-2069.31671	399.14284	1205.06432	-2046.19247	414.07326	1117.07825	-2077.96463	429.45488	1008.3033	-2022.23618	368.57552	908.33229	-1923.38287	406.41548	879.63188	-1985.40375	417.98634	852.81639	-1918.69232	-31.88701	1426.63849	-2060.76736	-89.8176	1246.69937	-2088.30109	-106.26954	1127.77542	-2084.95514	-120.31244	995.45189	-2039.94507	-61.23147	904.62837	-1930.51666	-126.37736	883.01003	-1979.06281	-119.50501	855.75798	-1908.97858	266.50028	967.3114	-1937.4678	30.30638	971.36406	-1942.67319	211.03842	1027.38281	-2151.3855	66.84103	1031.50208	-2151.27106	262.40143	748.68034	-2154.57809	299.21787	511.02551	-2069.37668	274.59614	311.7099	-2069.69559	280.92457	128.32664	-2160.58746	227.72854	119.47927	-2210.51025	263.82813	75.19282	-1987.30804	5.70687	730.54359	-2154.38568	0.6602	487.62901	-2081.45508	57.73404	302.96917	-2072.58881	27.46972	106.97817	-2159.69147	89.7343	113.00909	-2214.29169	43.10227	77.47032	-1991.70029
